<svg width="480" height="60" viewBox="0 0 480 60" fill="none" xmlns="http://www.w3.org/2000/svg">
<circle cx="450" cy="30" r="29" fill="white" stroke="black" stroke-width="2"/>
<circle cx="30" cy="30" r="14" fill="white" stroke="black" stroke-width="2"/>
<circle cx="100" cy="30" r="14" fill="white" stroke="black" stroke-width="2"/>
<circle cx="170" cy="30" r="14" fill="white" stroke="black" stroke-width="2"/>
<circle cx="240" cy="30" r="14" fill="white" stroke="black" stroke-width="2"/>
<circle cx="310" cy="30" r="14" fill="white" stroke="black" stroke-width="2"/>
<circle cx="380" cy="30" r="14" fill="white" stroke="black" stroke-width="2"/>
<path d="M449.5 13.1689C440.53 13.1689 433.25 20.4489 433.25 29.4189C433.25 38.3889 440.53 45.6689 449.5 45.6689H457.625V42.4189H449.5C442.448 42.4189 436.5 36.4714 436.5 29.4189C436.5 22.3664 442.448 16.4189 449.5 16.4189C456.552 16.4189 462.5 22.3664 462.5 29.4189V31.7427C462.5 33.0264 461.346 34.2939 460.062 34.2939C458.779 34.2939 457.625 33.0264 457.625 31.7427V29.4189C457.625 24.9339 453.985 21.2939 449.5 21.2939C445.015 21.2939 441.375 24.9339 441.375 29.4189C441.375 33.9039 445.015 37.5439 449.5 37.5439C451.743 37.5439 453.79 36.6339 455.253 35.1552C456.309 36.6014 458.129 37.5439 460.062 37.5439C463.264 37.5439 465.75 34.9439 465.75 31.7427V29.4189C465.75 20.4489 458.47 13.1689 449.5 13.1689ZM449.5 34.2939C446.802 34.2939 444.625 32.1164 444.625 29.4189C444.625 26.7214 446.802 24.5439 449.5 24.5439C452.198 24.5439 454.375 26.7214 454.375 29.4189C454.375 32.1164 452.198 34.2939 449.5 34.2939Z" fill="black"/>
</svg>
