<svg width="27" height="26" viewBox="0 0 27 26" fill="none" xmlns="http://www.w3.org/2000/svg">
<path d="M21.2625 21.9917L14.9625 15.925C14.4 16.3583 13.7531 16.7014 13.0219 16.9542C12.2906 17.2069 11.5125 17.3333 10.6875 17.3333C8.64375 17.3333 6.91425 16.6519 5.499 15.2891C4.083 13.9255 3.375 12.2597 3.375 10.2917C3.375 8.32361 4.083 6.65781 5.499 5.29425C6.91425 3.93142 8.64375 3.25 10.6875 3.25C12.7313 3.25 14.4611 3.93142 15.8771 5.29425C17.2924 6.65781 18 8.32361 18 10.2917C18 11.0861 17.8687 11.8354 17.6062 12.5396C17.3437 13.2438 16.9875 13.8667 16.5375 14.4083L22.8656 20.5021C23.0719 20.7007 23.175 20.9444 23.175 21.2333C23.175 21.5222 23.0625 21.775 22.8375 21.9917C22.6312 22.1903 22.3688 22.2896 22.05 22.2896C21.7313 22.2896 21.4687 22.1903 21.2625 21.9917ZM10.6875 15.1667C12.0938 15.1667 13.2892 14.6929 14.274 13.7453C15.258 12.7971 15.75 11.6458 15.75 10.2917C15.75 8.9375 15.258 7.78628 14.274 6.838C13.2892 5.89044 12.0938 5.41667 10.6875 5.41667C9.28125 5.41667 8.08575 5.89044 7.101 6.838C6.117 7.78628 5.625 8.9375 5.625 10.2917C5.625 11.6458 6.117 12.7971 7.101 13.7453C8.08575 14.6929 9.28125 15.1667 10.6875 15.1667Z" fill="black"/>
</svg>
