<svg width="465" height="60" viewBox="0 0 465 60" fill="none" xmlns="http://www.w3.org/2000/svg">
<circle cx="170" cy="30" r="29" fill="white" stroke="black" stroke-width="2"/>
<circle cx="30" cy="30" r="14" fill="white" stroke="black" stroke-width="2"/>
<circle cx="100" cy="30" r="14" fill="white" stroke="black" stroke-width="2"/>
<circle cx="240" cy="30" r="14" fill="white" stroke="black" stroke-width="2"/>
<circle cx="310" cy="30" r="14" fill="white" stroke="black" stroke-width="2"/>
<circle cx="380" cy="30" r="14" fill="white" stroke="black" stroke-width="2"/>
<circle cx="450" cy="30" r="14" fill="white" stroke="black" stroke-width="2"/>
<path d="M184.501 10H176.173C175.51 10 174.875 10.2258 174.406 10.6276C173.938 11.0295 173.675 11.5745 173.675 12.1429C173.675 12.7112 173.938 13.2562 174.406 13.6581C174.875 14.0599 175.51 14.2857 176.173 14.2857H178.463L175.207 17.0839C173.54 15.8955 171.576 15.0515 169.468 14.6167C167.36 14.182 165.164 14.1683 163.049 14.5767C160.934 14.985 158.956 15.8045 157.269 16.9719C155.582 18.1393 154.229 19.6235 153.316 21.3101C152.403 22.9966 151.954 24.8404 152.004 26.6993C152.053 28.5583 152.599 30.3827 153.601 32.0318C154.602 33.681 156.032 35.1109 157.779 36.2113C159.527 37.3117 161.546 38.0532 163.681 38.3786V40H159.516C158.854 40 158.218 40.2258 157.75 40.6276C157.281 41.0295 157.018 41.5745 157.018 42.1429C157.018 42.7112 157.281 43.2562 157.75 43.6581C158.218 44.0599 158.854 44.2857 159.516 44.2857H163.681V47.8571C163.681 48.4255 163.944 48.9705 164.412 49.3724C164.881 49.7742 165.516 50 166.179 50C166.842 50 167.477 49.7742 167.946 49.3724C168.414 48.9705 168.678 48.4255 168.678 47.8571V44.2857H172.842C173.504 44.2857 174.14 44.0599 174.608 43.6581C175.077 43.2562 175.34 42.7112 175.34 42.1429C175.34 41.5745 175.077 41.0295 174.608 40.6276C174.14 40.2258 173.504 40 172.842 40H168.678V38.3786C170.914 38.0365 173.021 37.2375 174.821 36.0493C176.621 34.8611 178.06 33.3186 179.018 31.5522C179.976 29.7859 180.424 27.8476 180.324 25.9015C180.224 23.9553 179.578 22.0585 178.443 20.3714L182.003 17.3214V19.2857C182.003 19.854 182.266 20.3991 182.735 20.8009C183.203 21.2028 183.839 21.4286 184.501 21.4286C185.164 21.4286 185.8 21.2028 186.268 20.8009C186.737 20.3991 187 19.854 187 19.2857V12.1429C187 11.5745 186.737 11.0295 186.268 10.6276C185.8 10.2258 185.164 10 184.501 10ZM166.179 34.2857C164.367 34.2857 162.596 33.8249 161.089 32.9615C159.583 32.0982 158.409 30.8711 157.715 29.4354C157.022 27.9997 156.84 26.4199 157.194 24.8957C157.547 23.3716 158.42 21.9716 159.701 20.8727C160.982 19.7739 162.615 19.0256 164.392 18.7224C166.169 18.4192 168.011 18.5748 169.685 19.1695C171.359 19.7642 172.79 20.7713 173.796 22.0634C174.803 23.3555 175.34 24.8746 175.34 26.4286C175.338 28.5117 174.371 30.5088 172.654 31.9818C170.937 33.4548 168.608 34.2834 166.179 34.2857Z" fill="black"/>
</svg>
