<svg width="465" height="60" viewBox="0 0 465 60" fill="none" xmlns="http://www.w3.org/2000/svg">
<circle cx="380" cy="30" r="29" fill="white" stroke="black" stroke-width="2"/>
<circle cx="30" cy="30" r="14" fill="white" stroke="black" stroke-width="2"/>
<circle cx="100" cy="30" r="14" fill="white" stroke="black" stroke-width="2"/>
<circle cx="170" cy="30" r="14" fill="white" stroke="black" stroke-width="2"/>
<circle cx="240" cy="30" r="14" fill="white" stroke="black" stroke-width="2"/>
<circle cx="310" cy="30" r="14" fill="white" stroke="black" stroke-width="2"/>
<circle cx="450" cy="30" r="14" fill="white" stroke="black" stroke-width="2"/>
<path d="M379.5 38.25C381.635 38.25 383.451 37.594 384.946 36.282C386.44 34.969 387.187 33.375 387.187 31.5C387.187 29.625 386.44 28.031 384.946 26.718C383.451 25.406 381.635 24.75 379.5 24.75C377.364 24.75 375.549 25.406 374.054 26.718C372.559 28.031 371.812 29.625 371.812 31.5C371.812 33.375 372.559 34.969 374.054 36.282C375.549 37.594 377.364 38.25 379.5 38.25ZM377.621 29.85L378.731 27.75C378.873 27.475 379.13 27.3375 379.5 27.3375C379.87 27.3375 380.126 27.475 380.269 27.75L381.379 29.85L383.771 30.825C384.084 30.95 384.24 31.175 384.24 31.5C384.24 31.825 384.084 32.05 383.771 32.175L381.379 33.15L380.269 35.25C380.126 35.525 379.87 35.6625 379.5 35.6625C379.13 35.6625 378.873 35.525 378.731 35.25L377.621 33.15L375.229 32.175C374.916 32.05 374.759 31.825 374.759 31.5C374.759 31.175 374.916 30.95 375.229 30.825L377.621 29.85ZM365.833 43.5C364.894 43.5 364.09 43.2065 363.421 42.6195C362.751 42.0315 362.417 41.325 362.417 40.5V22.5C362.417 21.675 362.751 20.969 363.421 20.382C364.09 19.794 364.894 19.5 365.833 19.5H371.214L373.35 17.475C373.663 17.15 374.04 16.906 374.481 16.743C374.923 16.581 375.386 16.5 375.87 16.5H383.13C383.614 16.5 384.077 16.581 384.519 16.743C384.96 16.906 385.337 17.15 385.65 17.475L387.785 19.5H393.167C394.106 19.5 394.911 19.794 395.58 20.382C396.249 20.969 396.583 21.675 396.583 22.5V40.5C396.583 41.325 396.249 42.0315 395.58 42.6195C394.911 43.2065 394.106 43.5 393.167 43.5H365.833ZM393.167 40.5V22.5H365.833V40.5H393.167Z" fill="black"/>
</svg>
