<svg width="465" height="60" viewBox="0 0 465 60" fill="none" xmlns="http://www.w3.org/2000/svg">
<circle cx="100" cy="30" r="29" fill="white" stroke="black" stroke-width="2"/>
<circle cx="30" cy="30" r="14" fill="white" stroke="black" stroke-width="2"/>
<circle cx="170" cy="30" r="14" fill="white" stroke="black" stroke-width="2"/>
<circle cx="240" cy="30" r="14" fill="white" stroke="black" stroke-width="2"/>
<circle cx="310" cy="30" r="14" fill="white" stroke="black" stroke-width="2"/>
<circle cx="380" cy="30" r="14" fill="white" stroke="black" stroke-width="2"/>
<circle cx="450" cy="30" r="14" fill="white" stroke="black" stroke-width="2"/>
<path d="M98.7045 10C99.5 10.3889 101.091 12.9556 101.091 14.6667C101.091 16.3778 100.025 17 98.7045 17C97.3841 17 96.3182 16.7667 96.3182 15.0556C96.3182 13.3444 97.9091 12.3333 98.7045 10ZM109.841 23.2222C113.818 23.2222 117 26.3333 117 30.2222C117 32.6489 115.743 34.78 113.818 36.04V45H85.1818V36.04C83.2568 34.78 82 32.6489 82 30.2222C82 26.3333 85.1818 23.2222 89.1591 23.2222H96.3182V18.5556H101.091V23.2222H109.841ZM99.5 34.1111C100.555 34.1111 101.566 33.7014 102.312 32.9721C103.058 32.2428 103.477 31.2536 103.477 30.2222H105.864C105.864 31.2536 106.283 32.2428 107.029 32.9721C107.774 33.7014 108.786 34.1111 109.841 34.1111C110.896 34.1111 111.907 33.7014 112.653 32.9721C113.399 32.2428 113.818 31.2536 113.818 30.2222C113.818 29.1908 113.399 28.2017 112.653 27.4724C111.907 26.7431 110.896 26.3333 109.841 26.3333H89.1591C88.1043 26.3333 87.0926 26.7431 86.3467 27.4724C85.6009 28.2017 85.1818 29.1908 85.1818 30.2222C85.1818 31.2536 85.6009 32.2428 86.3467 32.9721C87.0926 33.7014 88.1043 34.1111 89.1591 34.1111C90.2139 34.1111 91.2256 33.7014 91.9714 32.9721C92.7173 32.2428 93.1364 31.2536 93.1364 30.2222H95.5227C95.5227 31.2536 95.9418 32.2428 96.6876 32.9721C97.4335 33.7014 98.4452 34.1111 99.5 34.1111Z" fill="black"/>
</svg>
